<svg 
 xmlns="http://www.w3.org/2000/svg"
 xmlns:xlink="http://www.w3.org/1999/xlink"
 width="4216px" height="689px">
<path fill-rule="evenodd"  fill="rgb(40, 40, 40)"
 d="M4060.072,256.978 C4012.405,256.978 3964.738,289.062 3964.738,344.979 C3964.738,405.479 4016.989,426.563 4068.322,429.313 C4137.073,432.979 4215.906,475.146 4215.906,555.813 C4215.906,629.147 4156.323,685.981 4082.072,685.981 C4020.655,685.981 3961.072,663.981 3932.655,629.147 L3948.238,602.564 C3981.238,632.814 4017.905,652.981 4082.072,653.897 C4141.656,652.981 4181.989,613.564 4181.989,555.813 C4181.989,479.730 4109.572,463.229 4080.239,461.396 C4016.989,457.729 3930.821,432.979 3930.821,344.979 C3930.821,278.978 3984.905,223.061 4059.155,223.061 C4100.406,223.061 4143.489,240.478 4168.239,265.228 L4150.823,296.395 C4124.239,270.728 4095.822,258.812 4060.072,256.978 ZM3619.156,651.147 C3653.073,651.147 3688.823,639.230 3718.157,622.730 L3773.157,623.647 C3731.907,663.064 3676.906,685.981 3619.156,685.981 C3495.405,685.981 3394.571,582.397 3394.571,454.063 C3394.571,326.645 3495.405,222.145 3619.156,222.145 C3745.657,222.145 3840.991,331.229 3843.741,471.479 L3427.572,471.479 C3444.072,592.480 3534.822,651.147 3619.156,651.147 ZM3807.074,436.646 C3783.240,316.562 3703.490,256.062 3619.156,256.062 C3534.822,256.062 3446.822,309.229 3428.488,436.646 L3807.074,436.646 ZM3196.573,648.397 C3234.156,648.397 3270.823,637.397 3301.990,616.314 L3318.490,652.064 C3281.823,674.981 3239.656,686.897 3196.573,686.897 C3069.155,686.897 2965.572,583.313 2965.572,455.896 C2965.572,327.562 3069.155,223.978 3196.573,223.978 C3239.656,223.978 3281.823,235.895 3318.490,258.812 L3301.073,293.645 C3269.907,273.478 3234.156,263.395 3196.573,263.395 C3090.239,263.395 3004.072,349.562 3004.072,455.896 C3004.072,561.313 3090.239,648.397 3196.573,648.397 ZM2859.238,87.394 C2848.238,87.394 2838.155,78.227 2838.155,67.227 C2838.155,55.311 2848.238,46.144 2859.238,46.144 C2871.155,46.144 2880.322,55.311 2880.322,67.227 C2880.322,78.227 2871.155,87.394 2859.238,87.394 ZM2586.988,421.979 L2586.988,686.897 L2555.821,686.897 L2555.821,226.728 L2586.988,226.728 L2586.988,333.979 C2586.988,333.979 2606.238,301.895 2634.655,275.312 C2666.739,245.978 2706.156,231.311 2749.239,226.728 L2749.239,259.728 C2666.739,267.062 2603.488,338.562 2586.988,421.979 ZM2360.573,451.313 C2360.573,451.313 2323.906,476.980 2274.406,484.313 C2263.406,486.146 2254.239,486.146 2245.072,487.063 L2102.072,487.063 L2102.072,687.814 L2066.321,687.814 L2066.321,46.144 L2245.072,46.144 C2364.240,47.977 2460.490,146.978 2460.490,266.145 C2460.490,341.312 2423.823,409.146 2361.490,450.396 L2360.573,451.313 ZM2240.489,85.561 L2102.072,85.561 L2102.072,447.646 L2240.489,447.646 C2340.406,447.646 2421.990,366.062 2421.990,266.145 C2421.990,166.228 2340.406,85.561 2240.489,85.561 ZM1479.655,0.310 L1563.988,0.310 L1563.988,686.897 L1479.655,686.897 L1479.655,0.310 ZM1388.907,498.980 L1313.740,498.980 L1040.572,498.980 C1057.072,561.313 1112.072,605.314 1176.239,605.314 C1206.489,605.314 1232.156,597.064 1253.240,581.480 L1366.907,581.480 C1327.490,647.480 1256.906,688.731 1176.239,688.731 C1054.322,688.731 952.571,586.980 952.571,458.646 C952.571,330.312 1054.322,227.645 1176.239,227.645 C1300.907,227.645 1401.740,330.312 1401.740,458.646 C1401.740,474.230 1400.824,487.063 1398.074,498.980 L1388.907,498.980 ZM1176.239,311.062 C1111.155,311.062 1057.988,355.979 1040.572,417.396 L1313.740,417.396 C1297.240,356.896 1241.323,311.062 1176.239,311.062 ZM804.073,637.397 C766.490,667.647 722.489,685.981 672.072,685.981 C595.072,685.981 527.238,641.980 487.821,575.980 C470.405,545.730 459.405,509.980 456.655,472.396 L456.655,429.313 L456.655,229.478 L540.072,229.478 L540.072,264.312 L540.072,407.312 L540.072,495.313 C557.488,556.730 609.739,599.814 672.072,599.814 C734.406,599.814 785.740,556.730 804.073,495.313 L804.073,229.478 L804.990,229.478 L877.407,229.478 L881.990,229.478 L881.990,685.981 L804.073,685.981 L804.073,637.397 ZM86.322,333.062 L319.156,333.062 L319.156,414.646 L86.322,414.646 L86.322,686.897 L0.155,686.897 L0.155,44.310 L375.990,44.310 L375.990,132.311 L86.322,132.311 L86.322,333.062 ZM2874.821,688.731 L2838.155,688.731 L2838.155,228.561 L2874.821,228.561 L2874.821,688.731 Z"/>
</svg>